<svg width="22" height="22" viewBox="0 0 22 22" fill="none" xmlns="http://www.w3.org/2000/svg">
<path fill-rule="evenodd" clip-rule="evenodd" d="M5 1.75H4C3.00544 1.75 2.05161 2.14509 1.34835 2.84835C0.645088 3.55161 0.25 4.50544 0.25 5.5V17.5C0.25 18.4946 0.645088 19.4484 1.34835 20.1517C2.05161 20.8549 3.00544 21.25 4 21.25H11.876C11.7036 20.9122 11.603 20.5423 11.5805 20.1637C11.5579 19.7851 11.6139 19.4059 11.745 19.05C12.214 17.7755 13.1135 16.7048 14.288 16.023C13.5857 15.2827 13.1928 14.3021 13.1897 13.2817C13.1865 12.2613 13.5734 11.2782 14.2711 10.5336C14.9688 9.78901 15.9247 9.33913 16.9431 9.276C17.9616 9.21287 18.9657 9.54126 19.75 10.194V5.5C19.75 4.50544 19.3549 3.55161 18.6517 2.84835C17.9484 2.14509 16.9946 1.75 16 1.75H15V4C15 4.19891 14.921 4.38968 14.7803 4.53033C14.6397 4.67098 14.4489 4.75 14.25 4.75C14.0511 4.75 13.8603 4.67098 13.7197 4.53033C13.579 4.38968 13.5 4.19891 13.5 4V1.75H6.5V4C6.5 4.19891 6.42098 4.38968 6.28033 4.53033C6.13968 4.67098 5.94891 4.75 5.75 4.75C5.55109 4.75 5.36032 4.67098 5.21967 4.53033C5.07902 4.38968 5 4.19891 5 4V1.75ZM5 13.75H10C10.1989 13.75 10.3897 13.671 10.5303 13.5303C10.671 13.3897 10.75 13.1989 10.75 13C10.75 12.8011 10.671 12.6103 10.5303 12.4697C10.3897 12.329 10.1989 12.25 10 12.25H5C4.80109 12.25 4.61032 12.329 4.46967 12.4697C4.32902 12.6103 4.25 12.8011 4.25 13C4.25 13.1989 4.32902 13.3897 4.46967 13.5303C4.61032 13.671 4.80109 13.75 5 13.75ZM5 9.75H8.1C8.29891 9.75 8.48968 9.67098 8.63033 9.53033C8.77098 9.38968 8.85 9.19891 8.85 9C8.85 8.80109 8.77098 8.61032 8.63033 8.46967C8.48968 8.32902 8.29891 8.25 8.1 8.25H5C4.80109 8.25 4.61032 8.32902 4.46967 8.46967C4.32902 8.61032 4.25 8.80109 4.25 9C4.25 9.19891 4.32902 9.38968 4.46967 9.53033C4.61032 9.67098 4.80109 9.75 5 9.75Z" fill="#1E1B1B"/>
<path d="M17.1699 16.25C18.8268 16.25 20.1699 14.9069 20.1699 13.25C20.1699 11.5931 18.8268 10.25 17.1699 10.25C15.5131 10.25 14.1699 11.5931 14.1699 13.25C14.1699 14.9069 15.5131 16.25 17.1699 16.25Z" fill="#1E1B1B"/>
<path fill-rule="evenodd" clip-rule="evenodd" d="M14.327 21.75L20.02 21.737C20.2993 21.7359 20.5742 21.6675 20.8214 21.5376C21.0687 21.4076 21.2809 21.22 21.4402 20.9905C21.5995 20.7611 21.701 20.4966 21.7364 20.2196C21.7717 19.9425 21.7396 19.661 21.643 19.399C21.3127 18.4772 20.7057 17.68 19.9051 17.1163C19.1044 16.5527 18.1492 16.2501 17.17 16.25C16.1902 16.252 15.2347 16.5547 14.4325 17.1171C13.6302 17.6795 13.0199 18.4746 12.684 19.395C12.5865 19.6596 12.5544 19.9438 12.5904 20.2235C12.6264 20.5032 12.7295 20.77 12.8909 21.0013C13.0522 21.2326 13.2671 21.4214 13.5171 21.5518C13.7672 21.6821 14.045 21.7501 14.327 21.75ZM5 1.75H6.5V1C6.5 0.801088 6.42098 0.610322 6.28033 0.46967C6.13968 0.329018 5.94891 0.25 5.75 0.25C5.55109 0.25 5.36032 0.329018 5.21967 0.46967C5.07902 0.610322 5 0.801088 5 1V1.75ZM13.5 1.75H15V1C15 0.801088 14.921 0.610322 14.7803 0.46967C14.6397 0.329018 14.4489 0.25 14.25 0.25C14.0511 0.25 13.8603 0.329018 13.7197 0.46967C13.579 0.610322 13.5 0.801088 13.5 1V1.75Z" fill="#1E1B1B"/>
</svg>
