<svg width="47" height="48" viewBox="0 0 47 48" fill="none" xmlns="http://www.w3.org/2000/svg">
<path d="M13.318 0.690666V6.56533C13.3286 10.882 10.9426 14.2393 5.92529 14.2393H0.123291L0.130624 41.7493C0.130624 45.7913 1.54396 47.3047 5.46062 47.3047H22.2866C20.0853 45.1807 18.7066 42.2113 18.7066 38.9333V30.4687C18.7066 28.3087 20.1093 26.924 21.8006 26.0027V24.9167C21.8006 18.8607 26.784 13.8787 32.8393 13.8787H35.284C36.2213 13.8787 37.128 14.01 37.9986 14.236V6.246C37.9986 2.208 36.582 0.690666 32.6693 0.690666H13.318Z" fill="#7EBC89"/>
<path d="M10.1687 0.690666V6.18667C10.1687 8.39533 9.76601 9.548 9.21335 10.128C8.65801 10.7073 7.63735 11.1073 5.52268 11.1073H0.122681C0.122681 10.166 0.692014 9.736 1.27535 9.13467L8.62935 1.56867C9.10935 1.01667 9.68535 0.697333 10.1687 0.690666ZM34.0607 33.878C35.3073 33.878 36.3074 34.878 36.3074 36.1247V38.8987C36.3074 40.142 35.3073 41.142 34.0607 41.142C33.7659 41.1427 33.4739 41.0852 33.2015 40.9727C32.929 40.8602 32.6815 40.6949 32.4731 40.4865C32.2647 40.278 32.0995 40.0304 31.9871 39.7579C31.8747 39.4854 31.8172 39.1934 31.818 38.8987V36.1247C31.818 34.878 32.818 33.878 34.0607 33.878ZM32.8354 21.42H35.2867C37.1587 21.42 38.596 22.8567 38.596 24.7287V27.8567H29.5293V24.7287C29.5293 22.8567 30.9633 21.42 32.8354 21.42ZM32.8354 16.802C28.4847 16.802 24.908 20.378 24.908 24.7293V27.8573H24.564C23.0254 27.9373 21.8173 28.986 21.8173 30.2813V38.746C21.8146 39.8704 22.034 40.9843 22.463 42.0237C22.8919 43.0631 23.5219 44.0075 24.3169 44.8028C25.1118 45.598 26.056 46.2284 27.0952 46.6578C28.1345 47.0871 29.2483 47.307 30.3727 47.3047H37.7514C38.8758 47.307 39.9896 47.0871 41.0288 46.6578C42.068 46.2284 43.0122 45.598 43.8072 44.8028C44.6021 44.0075 45.2321 43.0631 45.6611 42.0237C46.09 40.9843 46.3094 39.8704 46.3067 38.746V30.2807C46.3067 28.9853 45.098 27.936 43.56 27.8567H43.2133V24.7287C43.2133 20.3773 39.6374 16.8013 35.286 16.8013L32.8354 16.802Z" fill="#7EBC89"/>
</svg>
