<svg width="56" height="56" viewBox="0 0 56 56" fill="none" xmlns="http://www.w3.org/2000/svg">
<path d="M32.0313 20.5H23.9688C23.2974 20.5 22.6536 20.7667 22.1789 21.2414C21.7042 21.7161 21.4375 22.3599 21.4375 23.0312V30.1562C21.4375 30.8276 21.7042 31.4714 22.1789 31.9461C22.6536 32.4208 23.2974 32.6875 23.9688 32.6875H24.25V42.8125C24.2488 43.0837 24.3013 43.3525 24.4045 43.6033C24.5077 43.854 24.6596 44.0819 24.8513 44.2737C25.0431 44.4654 25.271 44.6173 25.5218 44.7205C25.7725 44.8237 26.0413 44.8762 26.3125 44.875H29.6875C29.9587 44.8762 30.2275 44.8237 30.4783 44.7205C30.729 44.6173 30.9569 44.4654 31.1487 44.2737C31.3404 44.0819 31.4923 43.854 31.5955 43.6033C31.6987 43.3525 31.7512 43.0837 31.75 42.8125V32.6875H32.0313C32.7026 32.6875 33.3464 32.4208 33.8211 31.9461C34.2958 31.4714 34.5625 30.8276 34.5625 30.1562V23.0312C34.5625 22.3599 34.2958 21.7161 33.8211 21.2414C33.3464 20.7667 32.7026 20.5 32.0313 20.5ZM7.375 34.5625C8.95173 34.5607 10.4751 33.9912 11.6664 32.9583C12.8577 31.9254 13.6373 30.4981 13.8625 28.9375H17.6875C17.9361 28.9375 18.1746 28.8387 18.3504 28.6629C18.5262 28.4871 18.625 28.2486 18.625 28C18.625 27.7514 18.5262 27.5129 18.3504 27.3371C18.1746 27.1613 17.9361 27.0625 17.6875 27.0625H13.8625C13.6828 25.8172 13.1488 24.6498 12.3242 23.6994C11.4997 22.749 10.4193 22.0557 9.21175 21.702C8.00423 21.3484 6.72051 21.3493 5.51352 21.7048C4.30653 22.0602 3.22716 22.7551 2.40401 23.7067C1.58086 24.6584 1.04863 25.8266 0.870737 27.0722C0.69284 28.3178 0.876775 29.5882 1.40063 30.7322C1.92448 31.8762 2.76616 32.8455 3.8254 33.5246C4.88464 34.2037 6.11677 34.564 7.375 34.5625ZM13.2063 10.3844C13.8626 9.11235 14.0852 7.6606 13.8399 6.25038C13.5946 4.84016 12.8949 3.54881 11.8475 2.57315C10.8002 1.59749 9.46252 0.991021 8.03847 0.846183C6.61442 0.701345 5.18207 1.02608 3.95971 1.77089C2.73736 2.5157 1.79204 3.63974 1.26784 4.9717C0.743637 6.30366 0.669298 7.77048 1.05615 9.14861C1.44301 10.5267 2.26984 11.7406 3.41063 12.6052C4.55142 13.4697 5.94361 13.9376 7.375 13.9375C8.25991 13.9366 9.13549 13.7567 9.9491 13.4087C10.7627 13.0607 11.4975 12.5518 12.1094 11.9125L19.9563 17.5375C20.1178 17.6421 20.3077 17.6945 20.5 17.6875C20.6976 17.6862 20.8898 17.6226 21.049 17.5056C21.2083 17.3886 21.3265 17.2243 21.3868 17.0361C21.4471 16.8479 21.4464 16.6455 21.3848 16.4577C21.3232 16.27 21.2038 16.1065 21.0438 15.9906L13.2063 10.3844ZM19.9563 38.4906L12.1094 44.1156C11.0529 43.0151 9.64608 42.317 8.13069 42.1413C6.61529 41.9657 5.08605 42.3235 3.80587 43.1532C2.5257 43.9829 1.57458 45.2327 1.11605 46.6877C0.657519 48.1427 0.720219 49.712 1.29337 51.1257C1.86652 52.5395 2.91432 53.7095 4.25661 54.4344C5.5989 55.1593 7.15181 55.394 8.64836 55.098C10.1449 54.802 11.4916 53.9939 12.4569 52.8125C13.4221 51.6312 13.9457 50.1505 13.9375 48.625C13.9373 47.5779 13.6866 46.5461 13.2063 45.6156L21.0438 39.9906C21.2219 39.8381 21.3365 39.6242 21.3647 39.3913C21.3929 39.1585 21.3328 38.9235 21.1962 38.7327C21.0597 38.542 20.8565 38.4094 20.627 38.3611C20.3974 38.3128 20.1581 38.3523 19.9563 38.4719V38.4906ZM48.625 21.4375C47.0483 21.4393 45.5249 22.0088 44.3336 23.0417C43.1423 24.0746 42.3628 25.5019 42.1375 27.0625H38.3125C38.0639 27.0625 37.8254 27.1613 37.6496 27.3371C37.4738 27.5129 37.375 27.7514 37.375 28C37.375 28.2486 37.4738 28.4871 37.6496 28.6629C37.8254 28.8387 38.0639 28.9375 38.3125 28.9375H42.1375C42.3173 30.1828 42.8512 31.3502 43.6758 32.3006C44.5003 33.251 45.5807 33.9443 46.7883 34.298C47.9958 34.6516 49.2795 34.6507 50.4865 34.2952C51.6935 33.9398 52.7728 33.2449 53.596 32.2933C54.4191 31.3416 54.9514 30.1734 55.1293 28.9278C55.3072 27.6822 55.1232 26.4118 54.5994 25.2678C54.0755 24.1238 53.2338 23.1545 52.1746 22.4754C51.1154 21.7963 49.8832 21.436 48.625 21.4375ZM48.625 0.812501C47.4993 0.812598 46.3926 1.10224 45.4113 1.65359C44.4299 2.20493 43.6068 2.99944 43.0212 3.96076C42.4355 4.92207 42.107 6.01787 42.0672 7.14282C42.0274 8.26777 42.2776 9.38405 42.7938 10.3844L34.9562 16.0094C34.8037 16.1275 34.6914 16.2898 34.6345 16.4742C34.5777 16.6585 34.5791 16.8559 34.6386 17.0395C34.698 17.223 34.8127 17.3837 34.9668 17.4997C35.121 17.6157 35.3072 17.6812 35.5 17.6875C35.6954 17.6862 35.8855 17.624 36.0438 17.5094L43.8906 11.8844C44.6385 12.6751 45.5713 13.2674 46.605 13.6079C47.6387 13.9484 48.7408 14.0265 49.8122 13.8352C50.8836 13.6438 51.8906 13.189 52.7425 12.5117C53.5944 11.8343 54.2645 10.9558 54.6924 9.95508C55.1203 8.95438 55.2926 7.86297 55.1937 6.77911C55.0949 5.69526 54.7281 4.653 54.1263 3.74617C53.5245 2.83935 52.7066 2.09643 51.7463 1.58432C50.786 1.0722 49.7133 0.80697 48.625 0.812501ZM48.625 42.0625C47.748 42.0697 46.8813 42.2526 46.0762 42.6004C45.2711 42.9482 44.5439 43.4539 43.9375 44.0875L36.0906 38.4625C35.8888 38.343 35.6495 38.3034 35.4199 38.3517C35.1903 38.4 34.9872 38.5326 34.8507 38.7233C34.7141 38.9141 34.654 39.1491 34.6822 39.382C34.7104 39.6148 34.8249 39.8287 35.0031 39.9813L42.8406 45.6063C42.1812 46.8792 41.9567 48.3331 42.2016 49.7457C42.4464 51.1583 43.1471 52.4518 44.1966 53.4286C45.246 54.4053 46.5864 55.0116 48.0129 55.1546C49.4394 55.2977 50.8734 54.9696 52.0959 54.2207C53.3184 53.4718 54.262 52.3431 54.7824 51.0073C55.3029 49.6715 55.3716 48.2019 54.9781 46.8234C54.5845 45.4448 53.7503 44.233 52.6031 43.3733C51.4558 42.5136 50.0586 42.0532 48.625 42.0625Z" fill="#7EBC89"/>
</svg>
