<svg width="60" height="60" viewBox="0 0 60 60" fill="none" xmlns="http://www.w3.org/2000/svg">
<path d="M22.5 25C29.4036 25 35 19.4036 35 12.5C35 5.59644 29.4036 0 22.5 0C15.5964 0 10 5.59644 10 12.5C10 19.4036 15.5964 25 22.5 25Z" fill="#7EBC89"/>
<path d="M23.75 43.75C23.75 38.4225 25.8575 33.5875 29.265 30H11.875C8.72677 30.004 5.70863 31.2564 3.48249 33.4825C1.25636 35.7086 0.00396919 38.7268 0 41.875L0 50.625C0 51.66 0.84 52.5 1.875 52.5H25.7925C24.4519 49.7778 23.7532 46.7844 23.75 43.75Z" fill="#7EBC89"/>
<path d="M43.75 27.5C34.79 27.5 27.5 34.79 27.5 43.75C27.5 52.71 34.79 60 43.75 60C52.71 60 60 52.71 60 43.75C60 34.79 52.71 27.5 43.75 27.5ZM49.2675 49.2675C49.0359 49.5005 48.7605 49.6853 48.4571 49.8115C48.1538 49.9376 47.8285 50.0026 47.5 50.0026C47.1715 50.0026 46.8462 49.9376 46.5429 49.8115C46.2395 49.6853 45.9641 49.5005 45.7325 49.2675L41.9825 45.5175C41.7499 45.2857 41.5654 45.0103 41.4397 44.7069C41.314 44.4036 41.2495 44.0784 41.25 43.75V37.5C41.25 36.837 41.5134 36.2011 41.9822 35.7322C42.4511 35.2634 43.087 35 43.75 35C44.413 35 45.0489 35.2634 45.5178 35.7322C45.9866 36.2011 46.25 36.837 46.25 37.5V42.715L49.2675 45.7325C49.4999 45.9645 49.6842 46.24 49.81 46.5433C49.9358 46.8466 50.0005 47.1717 50.0005 47.5C50.0005 47.8283 49.9358 48.1534 49.81 48.4567C49.6842 48.76 49.4999 49.0355 49.2675 49.2675Z" fill="#7EBC89"/>
</svg>
