<svg width="42" height="40" viewBox="0 0 42 40" fill="none" xmlns="http://www.w3.org/2000/svg">
<path d="M5.47026 39.9418C5.21807 39.9418 5.03944 39.9195 4.86781 39.9452C3.03418 40.2162 2.04119 39.1117 1.00616 37.87C-0.223261 36.3985 0.0727108 34.7692 0.435233 33.2428C0.633131 32.4093 1.5876 31.7387 2.22683 31.0184C2.91684 30.2415 3.85029 30.0991 4.83979 30.1214C5.48252 30.1368 6.127 30.0871 6.76623 30.1334C8.42472 30.2535 9.76273 29.468 11.1848 28.8077C12.3442 28.2692 13.1445 27.3808 13.9729 26.5232C14.4475 26.031 14.7925 25.3502 15.0009 24.695C15.3494 23.5974 15.5964 22.4603 15.782 21.3215C15.9133 20.5103 15.8275 19.6665 15.9203 18.8467C16.1182 17.1111 17.2216 16.07 18.8135 15.4818C19.507 15.2245 20.2759 14.8112 20.9449 14.909C22.6769 15.1594 24.2496 15.7082 25.3774 17.2963C26.4527 18.8107 26.2216 20.3697 25.9519 21.8943C25.754 23.0177 24.8485 23.8906 23.7837 24.5063C22.5088 25.2421 21.169 25.4513 19.6927 25.357C16.2478 25.1375 13.8608 26.8337 11.9904 29.5314C10.852 31.1744 10.8626 32.9444 10.789 34.8001C10.7224 36.4842 10.2969 38.0586 8.68742 39.2249C7.59285 40.0172 6.5263 39.8817 5.47026 39.9418Z" fill="#7EBC89"/>
<path d="M29.1914 27.3171C29.2369 27.0376 29.2124 26.8764 29.2825 26.7975C30.6362 25.3122 31.1301 23.5543 31.0268 21.6009C31.0093 21.2579 31.0058 20.9149 31.004 20.5736C30.9988 18.5464 31.8884 16.8228 33.5697 15.8383C34.8989 15.0614 36.4226 14.3925 38.2439 15.2947C39.6748 16.003 40.8376 16.8108 41.4891 18.1948C42.0968 19.4862 42.004 20.8514 41.4769 22.1789C40.8499 23.7601 39.4296 24.4787 38.0198 25.1905C37.7273 25.338 37.3403 25.3311 36.9935 25.3414C36.2947 25.362 35.5942 25.3534 34.8937 25.3414C33.0951 25.3088 31.4576 25.7376 30.0741 26.9192C29.9883 26.9913 29.8692 27.0273 29.7641 27.0753C29.6362 27.1336 29.5049 27.1868 29.1914 27.3206V27.3171Z" fill="#7EBC89"/>
<path d="M12.8585 13.0274C12.4347 13.7288 12.0127 14.4303 11.5871 15.13C11.4838 15.2998 11.2911 15.4508 11.2666 15.6274C11.0915 16.9171 10.9041 18.2085 10.8078 19.5051C10.6939 21.0281 10.51 22.5133 9.30337 23.6298C8.17903 24.6691 6.82351 25.4598 5.28236 25.2642C3.6011 25.0516 2.13174 24.3536 1.01266 22.8563C-0.00310624 21.4963 0.0564384 20.0865 0.308628 18.7128C0.559065 17.3545 1.52229 16.3374 2.82526 15.5691C4.70618 14.4595 6.77448 15.1318 8.69217 14.6841C9.73069 14.4406 10.6974 13.8849 11.6869 13.451C12.0582 13.2881 12.4032 13.0686 12.7605 12.8748C12.7937 12.9262 12.827 12.9759 12.8603 13.0274H12.8585Z" fill="#7EBC89"/>
<path d="M14.0039 11.7635C14.0915 11.4273 14.1125 11.2661 14.1738 11.1186C14.6466 9.98153 15.1458 8.85475 15.5906 7.70738C15.7307 7.34722 15.7692 6.93733 15.7955 6.5463C15.8585 5.58073 15.8778 4.61172 15.9321 3.64615C16.0004 2.38045 16.8585 1.68757 17.7885 0.934668C19.3787 -0.353331 21.1528 -0.0360479 22.8498 0.286381C23.6326 0.435589 24.3367 1.21079 24.9794 1.8042C26.6466 3.34259 26.4925 5.41608 25.8305 7.13627C25.2071 8.76042 23.7797 10.1084 21.6344 10.0467C21.1388 10.033 20.6396 10.0844 20.1493 10.0433C18.2701 9.88377 16.6536 10.5887 15.0687 11.4479C14.7937 11.5971 14.454 11.6348 14.0039 11.7652V11.7635Z" fill="#7EBC89"/>
<path d="M27.9608 28.6686C27.7524 29.027 27.5475 29.3855 27.3356 29.7405C27.2918 29.8125 27.192 29.864 27.1728 29.9377C26.8277 31.3286 26.4495 32.7127 26.1692 34.1173C26.0502 34.7193 26.1237 35.3624 26.1412 35.985C26.1955 37.9504 24.7087 38.8577 23.3461 39.8027C23.0204 40.0273 22.4442 39.9176 21.9819 39.9364C21.5458 39.9553 21.0974 39.8833 20.6719 39.9502C17.826 40.4012 15.7034 37.4925 15.7752 34.9148C15.8365 32.6904 17.129 31.4452 18.7454 30.3082C18.9381 30.1727 19.2446 30.1641 19.502 30.1555C20.3164 30.1281 21.1377 30.0732 21.9486 30.1315C23.7717 30.2653 25.3444 29.6513 26.8435 28.7269C27.1115 28.5623 27.46 28.5228 27.77 28.425C27.833 28.5057 27.8978 28.5863 27.9608 28.6669V28.6686Z" fill="#7EBC89"/>
<path d="M36.7292 0.0944011C38.3877 -0.240033 39.6206 0.933058 40.7502 2.02726C42.0251 3.26037 42.1617 5.96843 41.16 7.43651C40.5926 8.26659 39.9726 9.24245 39.1232 9.65749C38.1705 10.1223 36.9376 10.1 35.8185 10.16C34.2125 10.2475 32.9428 9.48427 32.0479 8.24944C31.1022 6.94601 30.5891 5.4179 31.0899 3.8452C31.8483 1.45443 33.9656 0.0789656 36.7292 0.0944011Z" fill="#7EBC89"/>
<path d="M5.33558 0.123415C7.78917 0.051383 10.7139 2.21234 10.5668 5.40576C10.3969 9.06738 8.34083 10.3725 5.29355 10.436C2.35484 10.4977 0.121921 8.77753 0.0028313 5.35945C-0.102248 2.40614 2.73663 0.0273724 5.33558 0.123415Z" fill="#7EBC89"/>
<path d="M36.6694 39.9364C35.475 39.9793 34.2596 40.1045 33.3191 39.1389C32.8865 38.6947 32.3366 38.3088 32.0582 37.7857C31.6361 36.99 31.3804 36.105 31.1107 35.2406C31.0441 35.0297 31.1685 34.7432 31.2491 34.5066C31.4049 34.0521 31.6413 33.6182 31.7552 33.1551C32.1089 31.7196 33.9356 30.1967 35.4469 30.1384C36.0879 30.1143 36.7289 30.1126 37.3716 30.1229C39.0179 30.1521 41.0774 31.5756 41.6869 33.0899C42.5065 35.1274 41.6396 37.7343 39.9321 39.1904C38.8988 40.0702 37.799 39.8952 36.6694 39.9364Z" fill="#7EBC89"/>
</svg>
